<svg width="48" height="48" viewBox="0 0 48 48" fill="none" xmlns="http://www.w3.org/2000/svg">
<g id="logo">
<g id="logo_2">
<path id="Vector" d="M24.6492 46.468C24.0894 46.468 21.6666 46.4687 21.6666 46.4687C21.6666 46.4687 22.2528 46.1662 22.3422 45.5494C22.5528 44.0951 22.791 42.6364 22.863 41.1718C22.9416 39.5662 22.8702 37.9516 22.8144 36.3424C22.7892 35.6056 22.6644 34.8707 22.551 34.1399C22.356 32.8823 22.1844 31.618 21.9126 30.376C21.5634 28.7794 21.1242 27.2021 20.7246 25.6163C20.298 23.9249 19.8684 22.2341 19.4472 20.5415C19.2078 19.5797 18.9882 18.6137 18.7488 17.6519C18.3522 16.0589 17.9424 14.4689 17.5464 12.8753C17.2824 11.8133 17.0364 10.7465 16.7742 9.68385C16.5774 8.88765 16.3662 8.09505 16.1622 7.30005C16.152 7.26045 16.1514 7.21905 16.146 7.17825C16.194 7.20165 16.242 7.22445 16.29 7.24845C17.2332 7.72425 18.1554 8.24985 19.1268 8.65845C19.746 8.91885 20.5596 8.21985 20.9478 7.39185C21.5226 6.16485 22.1892 4.98105 22.8114 3.77565C23.1726 3.07605 23.52 2.36985 23.8806 1.67025C23.9088 1.61565 24.0252 1.54665 24.0498 1.56225C24.1254 1.61145 24.1908 1.69065 24.2334 1.77225C24.4812 2.24565 24.72 2.72445 24.9648 3.19965C25.425 4.09185 25.8966 4.97805 26.3448 5.87625C26.67 6.52725 26.8764 7.25805 27.2964 7.83765C27.8862 8.65125 28.6668 9.01845 29.7822 8.35845C30.4638 7.95525 31.1604 7.57725 31.851 7.18845C31.8666 7.17945 31.8864 7.17765 31.9044 7.17285C31.9044 7.20045 31.9086 7.22925 31.902 7.25505C31.737 7.91985 31.572 8.58465 31.4058 9.24885C31.206 10.0475 31.0086 10.8467 30.8052 11.6447C30.0618 14.5619 29.3166 17.4785 28.572 20.3951C28.2768 21.5513 27.9798 22.7075 27.6858 23.8643C27.5622 24.3509 27.4476 24.8405 27.324 25.3271C27.0858 26.2649 26.8344 27.1991 26.607 28.1393C26.307 29.3783 26.0136 30.619 25.74 31.864C25.6026 32.4904 25.5108 33.1276 25.4064 33.7612C25.3386 34.171 25.275 34.5826 25.227 34.9954C25.149 35.6728 25.0674 36.3514 25.02 37.0312C24.9762 37.6576 24.9576 38.287 24.9594 38.9146C24.9612 39.6952 24.966 40.4776 25.0224 41.2559C25.092 42.2195 25.1904 43.1824 25.3248 44.1395C25.3998 44.6722 25.5732 45.1918 25.7046 45.7169C25.896 46.4818 26.4166 46.4687 26.4166 46.4687L24.6492 46.468Z" fill="#EF4444"/>
<path id="Vector_2" d="M28.7252 33.097C28.739 30.7612 29.5658 28.7482 30.3866 26.734C30.8744 25.537 31.361 24.34 31.8608 23.1478C32.3606 21.9562 32.8826 20.773 33.3842 19.582C33.7742 18.655 34.1402 17.7178 34.5314 16.7914C34.8068 16.1398 35.1056 15.4978 35.4008 14.8546C35.4116 14.8318 35.522 14.8198 35.5418 14.842C35.6042 14.9116 35.6702 14.9944 35.6918 15.0832C35.8874 15.871 36.2912 16.5664 37.0802 16.7698C37.5926 16.9018 38.2064 16.7494 38.7518 16.6246C40.1642 16.3018 41.564 15.9256 42.968 15.5656C43.1426 15.5212 43.3052 15.427 43.481 15.3922C44.0294 15.283 44.0534 15.3922 43.763 16.2784C43.5938 16.795 43.4576 17.3224 43.3184 17.848C43.1186 18.6034 42.9212 19.36 42.7394 20.1202C42.599 20.7076 42.3158 21.3262 42.3986 21.886C42.5078 22.6252 42.968 23.263 43.8122 23.458C44.0936 23.5228 44.3636 23.6362 44.6384 23.7286C44.6558 23.7346 44.6696 23.7502 44.6852 23.7616C44.6306 23.824 44.5826 23.8942 44.5202 23.947C42.4622 25.6978 40.4012 27.4456 38.3432 29.197C37.4228 29.98 36.4574 30.7186 35.6042 31.5694C34.4588 32.7112 34.229 34.1338 34.631 35.6758C34.691 35.9062 34.7726 36.1402 34.7672 36.3712C34.766 36.4198 34.4276 36.5092 34.2488 36.499C32.9282 36.4228 31.5356 36.5602 30.3092 36.1744C28.9202 35.7376 28.7588 34.3096 28.7258 33.0964L28.7252 33.097Z" fill="#EF4444"/>
<path id="Vector_3" d="M19.3183 32.3855C19.3555 33.6671 19.3015 34.7705 18.5227 35.6513C18.2719 35.9345 17.8669 36.2003 17.5045 36.2441C16.3003 36.3887 15.0841 36.4823 13.8715 36.4937C12.6385 36.5051 13.4797 35.6489 13.5319 35.3081C13.8163 33.4523 13.1785 32.0363 11.7589 30.8765C10.2163 29.6165 8.70671 28.3151 7.18391 27.0311C6.09311 26.1113 5.00411 25.1897 3.91331 24.2705C3.76391 24.1445 3.60671 24.0269 3.45671 23.9015C3.41711 23.8685 3.39191 23.8193 3.36011 23.7773C3.53891 23.7113 3.71411 23.6297 3.89771 23.5823C4.94831 23.3129 5.91131 22.4471 5.56451 21.1727C5.35211 20.3921 5.21711 19.5905 5.01491 18.8069C4.71791 17.6567 4.39211 16.5143 4.07831 15.3689C4.24271 15.3755 4.41251 15.3575 4.56971 15.3941C5.04491 15.5039 5.51651 15.6299 5.98631 15.7595C6.98711 16.0355 7.98491 16.3229 8.98631 16.5959C9.90491 16.8467 10.8889 17.1299 11.6497 16.3631C12.0697 15.9401 12.2359 15.2657 12.5179 14.7053C12.5401 14.6609 12.5743 14.6225 12.6025 14.5817C12.6151 14.6213 12.6253 14.6615 12.6409 14.6993C13.1047 15.8045 13.5679 16.9103 14.0347 18.0149C14.3323 18.7193 14.6383 19.4207 14.9347 20.1257C15.3559 21.1283 15.7939 22.1249 16.1839 23.1401C17.1547 25.6703 18.1027 28.2089 19.0567 30.7457C19.0987 30.8579 19.1173 30.9809 19.1347 31.1003C19.2061 31.5845 19.2733 32.0693 19.3183 32.3867V32.3855Z" fill="#EF4444"/>
</g>
</g>
</svg>
